<svg width="32" height="32" viewBox="0 0 32 32" fill="none" xmlns="http://www.w3.org/2000/svg">
<path d="M8.0501 24.25C7.8001 24.2 7.6001 24.15 7.3501 24.05C7.1001 23.95 6.9001 23.9 6.7001 23.8C6.2501 23.6 5.8501 23.35 5.4501 23.05C4.6501 22.5 4.00011 21.75 3.50011 20.85C3.00011 20 2.70011 19 2.65011 18.05C2.60011 17.55 2.65011 17.1 2.70011 16.6C2.75011 16.35 2.80011 16.15 2.85011 15.9C2.90011 15.65 3.00011 15.45 3.05011 15.2L3.1001 15.9C3.1001 16.15 3.15011 16.35 3.20011 16.6C3.25011 17.05 3.35011 17.5 3.45011 17.9C3.65011 18.75 3.95011 19.55 4.40011 20.3C4.85011 21.05 5.35011 21.75 6.0001 22.4C6.3001 22.7 6.6501 23 7.0001 23.3C7.1501 23.45 7.3501 23.6 7.5501 23.75L8.0501 24.25Z" fill="#C6C6C6"/>
<path d="M7.9 26.0499C7.75 26.1499 7.55 26.2 7.35 26.25C7.15 26.3 7 26.35 6.8 26.35C6.45 26.4 6.05 26.45 5.65 26.4C4.9 26.3499 4.1 26.1499 3.45 25.7999C2.75 25.4499 2.15 24.9 1.75 24.25C1.55 23.95 1.35 23.6 1.2 23.25C1.15 23.1 1.1 22.9 1.05 22.7C1.05 22.55 1 22.4 1 22.2C1.15 22.35 1.25 22.45 1.35 22.6C1.5 22.75 1.6 22.9 1.7 23C1.95 23.25 2.15 23.5 2.4 23.7C2.9 24.15 3.4 24.55 4 24.85C4.55 25.15 5.2 25.4 5.8 25.6C6.1 25.7 6.45 25.75 6.8 25.85C6.95 25.9 7.15 25.9 7.3 25.95C7.55 26 7.7 25.9999 7.9 26.0499Z" fill="#C6C6C6"/>
<path d="M19.2002 1.75C19.4502 1.8 19.6502 1.9 19.9002 2C20.1502 2.1 20.3502 2.2 20.5502 2.3C21.0002 2.55 21.4002 2.8 21.8002 3.1C22.6002 3.7 23.2502 4.5 23.7002 5.4C24.1502 6.3 24.4002 7.3 24.4002 8.25C24.4002 8.75 24.3502 9.2 24.2502 9.7C24.2002 9.95 24.1502 10.15 24.0502 10.4C23.9502 10.65 23.9002 10.85 23.8002 11.05L23.7502 10.35C23.7502 10.1 23.7502 9.9 23.7002 9.65L23.5502 8.3C23.4002 7.45 23.1002 6.6 22.7002 5.8C22.3002 5 21.8002 4.3 21.2002 3.65C20.9002 3.3 20.5502 3 20.2502 2.65C20.1002 2.5 19.9002 2.35 19.7002 2.2L19.2002 1.75Z" fill="#C6C6C6"/>
<path d="M23.5498 1.55005C23.7498 1.60005 23.8998 1.65005 24.0498 1.75005C24.1998 1.80005 24.3998 1.90005 24.5498 2.00005C24.8498 2.20005 25.1498 2.40005 25.4498 2.65005C25.9998 3.15005 26.4498 3.75005 26.6998 4.45005C26.9998 5.15005 27.0998 5.90005 26.9998 6.65005C26.9498 7.00005 26.8498 7.35005 26.7498 7.70005C26.6998 7.85005 26.5998 8.05005 26.5498 8.20005C26.4498 8.35005 26.3998 8.50005 26.2498 8.65005V7.65005C26.2498 7.30005 26.1998 7.00005 26.1998 6.70005C26.0998 6.05005 25.9998 5.45005 25.7498 4.90005C25.4998 4.30005 25.1998 3.80005 24.8498 3.25005C24.6498 3.00005 24.4498 2.70005 24.2498 2.45005C24.1498 2.30005 24.0498 2.20005 23.8998 2.05005C23.7998 1.80005 23.6498 1.65005 23.5498 1.55005Z" fill="#C6C6C6"/>
<path d="M5.00006 9.00002C4.00006 9.45002 3.65006 10.65 4.10006 11.65L10.4001 24.8L13.9001 23.15L7.60006 9.95002C7.15006 8.95002 6.00006 8.50002 5.00006 9.00002Z" fill="#FED0AC"/>
<path d="M21.5499 19.45L25.2499 17.7L18.0499 2.70002C17.5499 1.70002 16.3499 1.25002 15.2999 1.75002C14.2999 2.25002 13.8499 3.45002 14.3499 4.50002L21.5499 19.45Z" fill="#FED0AC"/>
<path d="M15.3498 1.70011C15.2498 1.75011 15.1498 1.80011 15.0498 1.90011C15.9998 1.65011 16.9998 2.10011 17.4498 3.00011L24.6498 18.0001L25.2998 17.7001L18.0998 2.70011C17.5998 1.65011 16.3998 1.20011 15.3498 1.70011Z" fill="#E0A372"/>
<path d="M13.9 23.1L17.75 21.25L10.4 5.95004C9.89996 4.90004 8.59996 4.40004 7.54996 4.90004C6.49996 5.40004 6.04996 6.70004 6.54996 7.75004L13.9 23.1Z" fill="#FED0AC"/>
<path d="M7.55 4.95003C7.45 5.00003 7.35 5.05003 7.25 5.15003C8.2 4.90003 9.3 5.35003 9.75 6.30003L14.3 15.85L15.4 16.5L10.4 6.00003C9.9 4.90003 8.65 4.45003 7.55 4.95003Z" fill="#E0A372"/>
<path d="M17.15 20.0501L21 18.2001L13.65 2.90009C13.15 1.85009 11.85 1.35009 10.8 1.90009C9.74996 2.40009 9.29996 3.70009 9.79996 4.75009L17.15 20.0501Z" fill="#FED0AC"/>
<path d="M10.8 1.84994C10.7 1.89994 10.6 1.99994 10.5 2.04994C11.45 1.79994 12.55 2.24994 13 3.19994L18.15 13.9999L19.25 14.6499L13.65 2.89994C13.15 1.79994 11.85 1.34994 10.8 1.84994Z" fill="#E0A372"/>
<path d="M5.0002 8.99992C4.9002 9.04992 4.8002 9.09992 4.7002 9.19992C5.6002 8.94992 6.5502 9.39992 6.9502 10.2999L10.7002 18.1499L11.8002 18.7999L7.6002 9.99992C7.1502 8.94992 6.0002 8.49992 5.0002 8.99992Z" fill="#E0A372"/>
<path d="M30.4 7.49996C29.0499 6.44996 26.85 7.59996 25.75 11.2C25 13.7 24.9 14.45 23.3 15.2L22.4 13.35C22.4 13.35 8.19995 20.2 8.74995 21.3C8.74995 21.3 10.4499 26.6 13.35 29.05C17.65 32.75 27.7 28.8 28.15 19.25C28.4 13.7 31.85 8.64996 30.4 7.49996Z" fill="#FED0AC"/>
<path d="M30.4002 7.4999C30.1502 7.2999 29.8502 7.1999 29.5502 7.1499C29.6002 7.1999 29.7002 7.1999 29.7502 7.2499C31.2502 8.3999 29.7002 11.0499 28.8502 13.4499C28.1502 15.3499 27.5502 17.2999 27.6502 19.1999C28.0502 27.4999 19.7002 31.4499 14.7002 29.9499C19.6002 31.9999 28.7002 28.0999 28.3002 19.4499C28.2002 17.5499 28.7502 15.6999 29.5002 13.6999C30.3002 11.2999 31.8502 8.6499 30.4002 7.4999Z" fill="#E0A372"/>
<path d="M23.75 15C20.65 15.35 16.1 19.8 19.3 24.65C16.95 19.75 20.8 16.45 23.25 15.3C23.5 15.1 23.75 15 23.75 15Z" fill="#E0A372"/>
</svg>
